<svg width="170" height="150" viewBox="0 0 170 150" fill="none" xmlns="http://www.w3.org/2000/svg">
<path d="M156.577 28.1407C156.577 28.1407 169.235 27.0724 167.032 43.1417C164.604 60.8609 139.193 73.5602 161.232 94.5005C161.232 94.5005 142.673 95.6026 134.554 92.5166C126.434 89.4307 131.074 37.3914 131.074 37.3914L142.673 28.2975L156.577 28.1407Z" fill="#919195"/>
<g opacity="0.6">
<path d="M132.051 120.701C132.051 120.701 142.803 96.0705 149.977 99.1164C157.152 102.162 138.787 114.092 135.904 121.357L132.051 120.701Z" fill="#919195"/>
</g>
<path d="M129.932 122.791C129.932 122.791 150.929 98.3913 159.519 104.263C168.108 110.134 140.631 117.536 134.818 124.83L129.932 122.791Z" fill="#C7C7CA"/>
<path d="M132.653 123.955C136.567 118.85 142.706 114.602 147.167 111.938C152.002 109.049 155.96 107.349 155.999 107.332L155.882 107.104C155.843 107.121 151.868 108.829 147.017 111.727C142.536 114.403 136.369 118.671 132.43 123.809L132.653 123.955Z" fill="#585667"/>
<path d="M162.154 126.04C157.701 126.639 158.033 132.809 153.097 131.358C148.923 130.129 148.59 129.747 147.05 130.778C146.522 131.131 146.059 131.559 145.661 132.035C145.183 132.605 144.279 133.433 142.979 133.56C135.035 134.335 124.983 122.96 133.567 117.58C134.187 117.191 135.06 117.082 136.023 117.004C141.249 116.586 142.72 118.875 147.163 113.516C151.608 108.156 156.62 116.556 160.11 116.491C163.601 116.426 166.723 115.661 169.208 119.216C171.693 122.775 166.607 125.444 162.154 126.04Z" fill="#919195"/>
<g opacity="0.5">
<path d="M135.582 125.523L135.432 125.287C135.544 125.227 146.956 119.274 169.785 120.219L169.774 120.492C147.03 119.55 135.694 125.463 135.582 125.523Z" fill="#191826"/>
<path d="M150.28 118.313C147.435 115.633 147.035 113.622 147.02 113.538L147.312 113.494C147.315 113.514 147.719 115.511 150.491 118.123L150.28 118.313Z" fill="#191826"/>
<path d="M150.607 121.283C149.852 119.859 150.061 117.89 151.211 115.587C152.072 113.862 153.17 112.537 153.181 112.523L153.417 112.691C153.374 112.742 149.136 117.891 150.874 121.165L150.607 121.283Z" fill="#191826"/>
<path d="M156.635 121.187C156.295 120.889 156.114 120.697 156.105 120.689L156.329 120.512C156.367 120.552 160.2 124.578 166.229 124.79L166.22 125.062C161.362 124.891 157.902 122.298 156.635 121.187Z" fill="#191826"/>
<path d="M159.188 127.668C157.906 126.172 157.606 124.738 157.58 123.798C157.552 122.776 157.827 122.115 157.838 122.087L158.115 122.188C158.104 122.213 157.074 124.76 159.42 127.501L159.188 127.668Z" fill="#191826"/>
</g>
<path d="M154.537 99.3428C155.169 98.464 155.662 98.3898 156.038 98.6208C156.414 98.8518 156.531 99.3003 155.9 100.179C154.749 101.78 153.511 102.136 153.511 102.136C153.511 102.136 153.37 100.967 154.537 99.3428Z" fill="#919195"/>
<path d="M50.3424 127.294C45.7392 127.211 50.5728 131.608 45.0656 131.749C38.1858 131.179 35.3637 128.155 34.3828 126.678C33.8733 125.911 33.2742 125.2 32.5794 124.577C30.4709 122.688 29.8874 123.215 23.3326 124.311C17.7718 125.239 17.1196 120.625 14.7592 117.285C14.7167 117.224 14.6728 117.164 14.6288 117.104C13.718 115.867 12.5486 114.828 10.771 114.347C8.88529 113.838 6.95795 113.059 5.2705 112.086C5.13042 112.006 4.99179 111.924 4.8546 111.839C1.50963 109.801 -0.745049 106.994 0.469855 104.091C0.498228 104.023 0.528719 103.954 0.561542 103.886C0.789636 103.405 1.11386 102.922 1.54468 102.441C6.03601 97.4229 10.5884 99.2076 15.8429 99.9806C18.7482 100.408 22.8929 96.9251 26.9647 95.2696C27.0229 95.2458 27.0817 95.2225 27.1398 95.1994C30.3723 93.9272 33.5466 93.8599 36.0032 97.8737C36.0032 97.8743 36.004 97.8743 36.004 97.8751C36.0539 97.9566 36.1039 98.0373 36.1531 98.1167C41.6431 106.956 44.3605 103.774 52.091 105.411C53.5288 105.717 54.8234 106.054 55.6782 106.775C63.6493 113.488 58.2986 122.776 50.3424 127.294Z" fill="#C7C7CA"/>
<path d="M51.0085 118.664L51.2846 118.328C51.1274 118.213 35.1432 106.815 0.489721 103.879L0.449219 104.302C34.9726 107.228 50.8518 118.55 51.0085 118.664Z" fill="#585667"/>
<path d="M30.3027 104.688C35.1543 101.094 36.1772 98.0629 36.2184 97.9358L35.7866 97.8115C35.7769 97.8415 34.7511 100.851 30.0234 104.354L30.3027 104.688Z" fill="#585667"/>
<path d="M29.1992 109.216C30.6358 107.161 30.731 104.076 29.4746 100.295C28.5339 97.4638 27.1523 95.203 27.1385 95.1807L26.748 95.3937C26.8021 95.4818 32.1254 104.257 28.822 108.982L29.1992 109.216Z" fill="#585667"/>
<path d="M20.1118 107.906C20.6868 107.51 21.001 107.25 21.0153 107.238L20.7142 106.921C20.6486 106.976 14.0259 112.461 4.88128 111.627L4.83789 112.05C12.2067 112.722 17.9693 109.379 20.1118 107.906Z" fill="#585667"/>
<path d="M14.9289 117.435C17.1749 115.368 17.9264 113.209 18.1613 111.763C18.417 110.187 18.1398 109.112 18.128 109.067L17.6899 109.17C17.7007 109.211 18.7256 113.347 14.6133 117.131L14.9289 117.435Z" fill="#585667"/>
<g opacity="0.6">
<path d="M105.615 19.0065C105.615 19.0065 104.571 17.0969 101.928 17.3362C99.2843 17.5755 99.599 19.4896 98.3403 19.3102C97.0817 19.1308 95.3196 19.3102 94.942 20.5066C94.5643 21.7029 92.8652 21.045 92.8022 22.0618C92.7392 23.0788 94.7531 23.7966 97.0817 22.8993C99.4103 22.0021 100.543 23.5964 103.816 23.3077C107.088 23.0189 107.494 22.66 109.431 22.8395C111.368 23.0189 111.322 21.7583 110.441 20.9208C109.559 20.0833 105.993 20.1631 105.615 19.0065Z" fill="#ACACB0"/>
</g>
<g opacity="0.6">
<path d="M128.025 4.05466C128.025 4.05466 125.782 -0.0453479 120.107 0.468364C114.432 0.982075 115.108 5.09199 112.405 4.70668C109.703 4.32137 105.92 4.70668 105.109 7.27535C104.298 9.84402 100.65 8.43128 100.515 10.6146C100.38 12.798 104.703 14.3392 109.703 12.4127C114.702 10.4862 117.135 13.9093 124.161 13.2895C131.187 12.6696 132.058 11.899 136.216 12.2843C140.375 12.6696 140.277 9.96296 138.385 8.1648C136.493 6.36664 128.836 6.53788 128.025 4.05466Z" fill="#ACACB0"/>
</g>
<g opacity="0.6">
<path d="M43.9249 19.1695C43.9249 19.1695 42.2181 16.0493 37.8992 16.4401C33.5803 16.8311 34.0945 19.9589 32.0379 19.6656C29.9812 19.3724 27.1019 19.6656 26.485 21.6204C25.868 23.5752 23.0915 22.5001 22.9887 24.1617C22.8859 25.8233 26.1764 26.9962 29.9812 25.5301C33.786 24.0639 35.637 26.6691 40.9842 26.1973C46.3313 25.7255 46.9938 25.1391 50.1589 25.4324C53.3239 25.7255 53.2488 23.6658 51.809 22.2974C50.3694 20.9289 44.542 21.0592 43.9249 19.1695Z" fill="#ACACB0"/>
</g>
<path d="M113.94 102.736C113.94 102.736 114.604 113.016 95.6969 101.734C82.7172 93.9884 22.272 101.628 26.2158 105.963L39.4392 129.023C39.4392 129.023 75.1657 110.812 115.3 126.021L122.028 121.833L113.94 102.736Z" fill="#F1F1F2"/>
<path d="M156.574 28.1406H124.556C124.556 28.1406 102.168 30.7435 106.479 65.9193C109.345 89.3049 115.917 100.808 113.935 111.812C113.009 116.952 99.1725 118.027 91.9648 115.026L99.8673 126.572C122.379 141.953 153.434 127.59 143.374 99.3111C128.237 56.764 139.52 30.1378 156.574 28.1406Z" fill="#F1F1F2"/>
<path d="M53.4117 109.818C37.3394 112.407 26.2105 105.961 26.2105 105.961C26.2105 105.961 29.6903 119.627 25.8238 131.016C25.2544 132.693 36.316 136.784 47.5791 134.079C80.2095 126.24 107.407 140.347 107.407 140.347V120.672C107.407 119.698 107.008 118.759 106.286 118.069C94.0411 106.379 76.6458 106.077 53.4117 109.818Z" fill="#919195"/>
<path d="M105.141 115C105.141 115 105.388 116.778 104.658 117.522C102.684 119.533 98.2966 120.024 88.1085 116.731C76.6125 113.015 67.4548 117.679 63.9415 121.367C62.2971 123.092 63.3067 125.015 63.3067 125.015L72.4961 140.529C72.4961 140.529 80.6158 128.516 87.5754 132.373C94.5352 136.231 101.147 138.765 105.555 136.341C105.555 136.341 106.657 116.595 105.141 115Z" fill="#E3E3E5"/>
<path d="M79.0815 126.571C79.0815 126.571 77.426 124.587 72.4539 125.726C68.3431 126.667 68.9003 128.61 68.9003 128.61L71.7828 135.583L81.0362 131.861L79.0815 126.571Z" fill="#919195"/>
<g opacity="0.6">
<path d="M68.8906 128.61C68.8906 128.61 71.3845 130.759 74.5744 129.768L78.0542 136.876L72.4441 137.207L68.8906 128.61Z" fill="#F1F1F2"/>
</g>
<path d="M65.1543 129.022C65.1543 129.022 67.885 134.608 74.4596 132.399C80.479 130.376 79.0729 126.571 79.0729 126.571L85.7112 144.536C85.7112 144.536 83.6619 151.883 73.2997 148.834L65.1543 129.022Z" fill="#F1F1F2"/>
<path d="M118.911 33.3918C122.559 32.6672 126.175 33.7381 129.844 33.7586C133.017 33.7762 136.2 33.5815 139.371 33.4794C139.743 33.4674 139.745 32.9163 139.371 32.9283C135.76 33.0447 132.097 33.338 128.485 33.1851C125.15 33.0439 122.078 32.2007 118.757 32.8605C118.392 32.933 118.547 33.4643 118.911 33.3918Z" fill="#919195"/>
<path d="M114.858 37.4105C118.259 37.1141 121.771 38.0008 125.194 38.1673C128.874 38.3465 132.566 38.3804 136.25 38.4783C136.623 38.4882 136.623 37.9371 136.25 37.9272C132.567 37.8293 128.873 37.8017 125.194 37.6162C121.726 37.4414 118.331 36.5568 114.858 36.8594C114.489 36.8916 114.486 37.4429 114.858 37.4105Z" fill="#919195"/>
<path d="M111.072 43.924C115.153 43.1512 119.454 44.4423 123.613 44.4267C127.143 44.4133 130.624 44.6792 134.142 44.9584C134.514 44.9879 134.512 44.4367 134.142 44.4073C130.151 44.0905 126.235 43.9934 122.241 43.9004C118.344 43.8096 114.791 42.6593 110.918 43.3926C110.552 43.4619 110.707 43.9931 111.072 43.924Z" fill="#919195"/>
<path d="M110.481 50.5628C113.931 50.631 117.237 51.6395 120.691 51.7146C124.769 51.8033 128.616 51.2451 132.671 52.0837C133.034 52.1589 133.19 51.6278 132.825 51.5523C129.306 50.8245 125.886 51.091 122.313 51.1546C118.289 51.2264 114.476 50.0907 110.481 50.0118C110.108 50.0043 110.108 50.5554 110.481 50.5628Z" fill="#919195"/>
<path d="M109.765 57.7797C116.906 56.9866 124.56 58.0129 131.712 58.5031C132.084 58.5286 132.083 57.9775 131.712 57.952C124.562 57.4619 116.907 56.4354 109.765 57.2286C109.398 57.2693 109.394 57.8209 109.765 57.7797Z" fill="#919195"/>
<path d="M110.235 64.6239C113.925 63.845 117.216 64.7838 120.878 64.8528C124.372 64.9187 127.885 64.7624 131.379 64.7134C131.752 64.7082 131.753 64.1571 131.379 64.1623C127.45 64.2174 123.405 64.5422 119.484 64.2672C116.015 64.024 113.533 63.3635 110.081 64.0925C109.717 64.1695 109.871 64.7008 110.235 64.6239Z" fill="#919195"/>
<path d="M111.024 71.538C118.078 71.6297 125.191 71.8443 132.234 71.4102C132.605 71.3874 132.607 70.8362 132.234 70.8591C125.19 71.2933 118.078 71.0786 111.024 70.9869C110.651 70.9822 110.651 71.5332 111.024 71.538Z" fill="#919195"/>
<path d="M111.611 78.6861C115.412 77.6692 118.536 79.0775 122.244 78.7655C125.662 78.4779 128.728 77.832 132.197 78.2539C132.566 78.2989 132.563 77.7473 132.197 77.7028C128.241 77.2217 124.953 78.2871 121.102 78.2961C117.416 78.3048 115.146 77.1675 111.456 78.1547C111.098 78.2507 111.25 78.7826 111.611 78.6861Z" fill="#919195"/>
<path d="M114.399 86.0747C117.664 83.9828 121.03 85.4406 124.575 85.4303C128.015 85.4203 131.139 84.9425 134.613 85.4907C134.978 85.5483 135.135 85.0174 134.767 84.9593C130.861 84.3428 127.132 85.0744 123.249 84.8136C119.953 84.5922 117.04 83.7191 114.106 85.5988C113.798 85.7961 114.088 86.2737 114.399 86.0747Z" fill="#919195"/>
<path d="M116.297 92.8701C119.353 91.7562 122.521 92.5673 125.698 92.3568C129.599 92.0983 132.348 91.4909 136.279 92.4309C136.641 92.5175 136.796 91.9862 136.434 91.8995C133.408 91.1761 130.644 91.1789 127.554 91.5544C123.781 92.0128 119.732 91.0305 116.143 92.3387C115.798 92.4644 115.947 92.9975 116.297 92.8701Z" fill="#919195"/>
<path d="M118.063 99.9362C121.441 99.4028 124.385 101.552 127.642 101.87C132.005 102.296 135.472 102.905 139.426 104.853C139.756 105.016 140.05 104.541 139.718 104.378C136.232 102.66 132.732 101.768 128.832 101.4C125.064 101.045 121.699 98.8062 117.909 99.4049C117.542 99.4629 117.697 99.9939 118.063 99.9362Z" fill="#919195"/>
<path d="M118.168 105.18C121.218 105.364 123.122 107.486 125.533 108.869C127.638 110.077 128.892 110.295 130.86 112.079C133.286 114.278 136.306 115.547 139.277 117.056C139.606 117.224 139.899 116.748 139.57 116.581C137.085 115.318 134.273 114.243 132.213 112.4C131.188 111.483 130.664 110.598 129.564 109.821C128.54 109.098 126.962 109.002 125.826 108.393C124.852 107.872 124.059 107.098 123.151 106.491C121.473 105.368 120.211 104.752 118.168 104.629C117.795 104.606 117.796 105.157 118.168 105.18Z" fill="#919195"/>
<path d="M113.683 109.965C114.904 111.291 114.616 113.05 115.202 114.609C115.704 115.942 116.682 117.11 117.497 118.276C118.585 119.83 118.287 120.932 118.724 122.631C119.271 124.762 119.922 125.242 120.146 127.505C120.181 127.855 120.761 127.858 120.726 127.505C120.582 126.044 120.078 124.8 119.762 123.399C119.342 121.538 119.739 120.981 119.063 119.521C117.773 116.732 115.957 115.354 115.294 112.191C115.04 110.979 114.915 110.468 114.093 109.575C113.847 109.308 113.438 109.699 113.683 109.965Z" fill="#919195"/>
<path d="M106.98 109.923C107.371 110.874 106.49 111.611 105.954 112.305C105.592 112.773 105.364 113.229 105.342 113.813C105.329 114.168 105.909 114.167 105.922 113.813C105.979 112.294 108.229 111.455 107.54 109.777C107.405 109.45 106.844 109.592 106.98 109.923Z" fill="#919195"/>
<path d="M99.1642 106.565C98.6878 107.729 98.0944 108.833 97.3902 109.887C97.1896 110.187 97.6913 110.464 97.891 110.165C98.6219 109.071 99.2293 107.919 99.7236 106.712C99.8589 106.381 99.2983 106.238 99.1642 106.565Z" fill="#919195"/>
<path d="M90.0883 103.097C90.0002 104.771 89.4575 106.309 88.4808 107.704C88.2735 108 88.7757 108.277 88.9816 107.983C90.0132 106.509 90.5754 104.863 90.6683 103.097C90.6869 102.742 90.1069 102.743 90.0883 103.097Z" fill="#919195"/>
<path d="M46.1203 103.144C46.856 104.375 46.8853 105.458 47.1652 106.79C47.3612 107.723 48.1397 108.236 48.7177 108.96C48.9403 109.239 49.4442 108.964 49.2185 108.681C48.9587 108.356 48.6619 108.073 48.3787 107.767C47.7837 107.123 47.7446 106.467 47.6385 105.655C47.508 104.657 47.1409 103.736 46.6211 102.866C46.4368 102.558 45.9356 102.835 46.1203 103.144Z" fill="#919195"/>
<path d="M35.531 104.911C36.5005 105.138 37.1877 105.767 37.869 106.423C38.5655 107.092 39.4737 107.768 39.8768 108.642C40.0263 108.966 40.5263 108.685 40.3776 108.363C39.9185 107.369 38.88 106.597 38.085 105.846C37.387 105.186 36.6591 104.607 35.6852 104.379C35.3228 104.294 35.1683 104.826 35.531 104.911Z" fill="#919195"/>
<path d="M99.7759 125.66C101.465 127.152 100.081 130.122 100.185 132.055C100.292 134.072 100.036 135.948 100.416 137.97C100.482 138.318 101.041 138.171 100.975 137.823C100.507 135.336 100.553 131.444 101.06 128.945C101.35 127.514 101.358 126.306 100.186 125.27C99.9129 125.029 99.5019 125.418 99.7759 125.66Z" fill="#919195"/>
<path d="M93.4302 124.66C94.4321 126.011 93.2116 129.311 92.8377 130.957C92.5473 132.235 92.9333 133.385 93.2069 134.69C93.2796 135.037 93.8388 134.89 93.7661 134.543C93.4687 133.124 93.2851 132.114 93.5845 130.69C93.7956 129.687 94.0673 128.635 94.3634 127.645C94.7408 126.383 94.7726 125.517 93.931 124.382C93.7177 124.094 93.2147 124.369 93.4302 124.66Z" fill="#919195"/>
<path d="M84.5546 122.5C86.1243 124.104 85.3946 125.492 85.8352 127.306C85.9594 127.817 86.1428 127.95 86.3614 128.422C86.9187 129.624 87.042 130.671 87.0197 131.962C87.0136 132.317 87.5936 132.317 87.5998 131.962C87.6148 131.091 87.6455 130.177 87.3954 129.327C87.0467 128.142 86.4235 127.207 86.3712 125.934C86.3073 124.378 86.1285 123.3 84.9646 122.11C84.7101 121.85 84.3006 122.24 84.5546 122.5Z" fill="#919195"/>
<path d="M76.6855 122.686C78.0091 123.215 78.9642 124.093 79.8189 125.165C80.3612 125.845 80.8645 126.435 81.7102 126.773C82.0537 126.911 82.2037 126.378 81.8644 126.242C80.7014 125.776 80.1499 124.523 79.2944 123.702C78.5888 123.026 77.7609 122.523 76.8398 122.154C76.4961 122.017 76.3461 122.55 76.6855 122.686Z" fill="#919195"/>
<path d="M77.5927 133.721C78.9753 135.228 79.1896 138.41 79.5093 140.194C79.816 141.904 80.7192 143.299 81.1985 144.966C81.2967 145.308 81.8564 145.163 81.7577 144.82C81.4216 143.651 80.7487 142.642 80.3694 141.494C79.9597 140.254 80.2385 139.004 79.8394 137.771C79.3676 136.313 79.0862 134.513 78.0028 133.331C77.7572 133.063 77.3484 133.454 77.5927 133.721Z" fill="#919195"/>
<path d="M72.035 135.531C73.1496 136.352 73.1188 136.349 73.1674 137.561C73.2103 138.63 73.6131 139.462 73.928 140.478C74.2433 141.494 73.9845 142.519 74.2762 143.498C74.5571 144.44 75.4232 145.044 75.7016 146.015C75.7995 146.357 76.3593 146.212 76.2608 145.869C75.9838 144.902 75.2394 144.247 74.9646 143.286C74.6489 142.182 74.7685 141.143 74.3729 140.021C74.1032 139.256 73.9056 138.735 73.8938 137.893C73.8993 138.288 73.9657 136.478 73.9796 136.513C73.7352 135.893 72.9717 135.529 72.4451 135.142C72.1536 134.927 71.7401 135.314 72.035 135.531Z" fill="#919195"/>
</svg>
